<mxfile host="app.diagrams.net" modified="2022-06-08T08:53:22.256Z" agent="5.0 (Macintosh; Intel Mac OS X 10_15_7) AppleWebKit/537.36 (KHTML, like Gecko) Chrome/102.0.5005.61 Safari/537.36" etag="RKaA8qoYgGx68fgUn3iA" version="19.0.0" type="github">
  <diagram id="C5RBs43oDa-KdzZeNtuy" name="Page-1">
    <mxGraphModel dx="1767" dy="614" grid="1" gridSize="10" guides="1" tooltips="1" connect="1" arrows="1" fold="1" page="1" pageScale="1" pageWidth="827" pageHeight="1169" math="0" shadow="0">
      <root>
        <mxCell id="WIyWlLk6GJQsqaUBKTNV-0" />
        <mxCell id="WIyWlLk6GJQsqaUBKTNV-1" parent="WIyWlLk6GJQsqaUBKTNV-0" />
        <mxCell id="ORCxQayAOxe9CnL5LS3O-15" value="JAVA" style="swimlane;horizontal=0;fillColor=#dae8fc;strokeColor=#6c8ebf;" parent="WIyWlLk6GJQsqaUBKTNV-1" vertex="1">
          <mxGeometry x="70" y="280" width="660" height="300" as="geometry" />
        </mxCell>
        <mxCell id="ORCxQayAOxe9CnL5LS3O-0" value="V2TXLivePlayerJSAdapter" style="swimlane;fontStyle=1;align=center;verticalAlign=top;childLayout=stackLayout;horizontal=1;startSize=26;horizontalStack=0;resizeParent=1;resizeParentMax=0;resizeLast=0;collapsible=1;marginBottom=0;" parent="ORCxQayAOxe9CnL5LS3O-15" vertex="1">
          <mxGeometry x="210" y="10" width="240" height="68" as="geometry" />
        </mxCell>
        <mxCell id="ORCxQayAOxe9CnL5LS3O-1" value="+ V2TXLivePlayer                   mPlayer" style="text;strokeColor=none;fillColor=none;align=left;verticalAlign=top;spacingLeft=4;spacingRight=4;overflow=hidden;rotatable=0;points=[[0,0.5],[1,0.5]];portConstraint=eastwest;" parent="ORCxQayAOxe9CnL5LS3O-0" vertex="1">
          <mxGeometry y="26" width="240" height="34" as="geometry" />
        </mxCell>
        <mxCell id="ORCxQayAOxe9CnL5LS3O-2" value="" style="line;strokeWidth=1;fillColor=none;align=left;verticalAlign=middle;spacingTop=-1;spacingLeft=3;spacingRight=3;rotatable=0;labelPosition=right;points=[];portConstraint=eastwest;" parent="ORCxQayAOxe9CnL5LS3O-0" vertex="1">
          <mxGeometry y="60" width="240" height="8" as="geometry" />
        </mxCell>
        <mxCell id="ORCxQayAOxe9CnL5LS3O-4" value="V2TXLivePlayerImpl" style="swimlane;fontStyle=1;align=center;verticalAlign=top;childLayout=stackLayout;horizontal=1;startSize=26;horizontalStack=0;resizeParent=1;resizeParentMax=0;resizeLast=0;collapsible=1;marginBottom=0;" parent="ORCxQayAOxe9CnL5LS3O-15" vertex="1">
          <mxGeometry x="235" y="120" width="190" height="60" as="geometry" />
        </mxCell>
        <mxCell id="ORCxQayAOxe9CnL5LS3O-5" value="+ V2TXLivePlayer mImpl" style="text;strokeColor=none;fillColor=none;align=left;verticalAlign=top;spacingLeft=4;spacingRight=4;overflow=hidden;rotatable=0;points=[[0,0.5],[1,0.5]];portConstraint=eastwest;" parent="ORCxQayAOxe9CnL5LS3O-4" vertex="1">
          <mxGeometry y="26" width="190" height="26" as="geometry" />
        </mxCell>
        <mxCell id="ORCxQayAOxe9CnL5LS3O-6" value="" style="line;strokeWidth=1;fillColor=none;align=left;verticalAlign=middle;spacingTop=-1;spacingLeft=3;spacingRight=3;rotatable=0;labelPosition=right;points=[];portConstraint=eastwest;" parent="ORCxQayAOxe9CnL5LS3O-4" vertex="1">
          <mxGeometry y="52" width="190" height="8" as="geometry" />
        </mxCell>
        <mxCell id="ORCxQayAOxe9CnL5LS3O-8" value="" style="endArrow=open;endFill=1;endSize=12;html=1;rounded=0;exitX=0.5;exitY=1;exitDx=0;exitDy=0;entryX=0.5;entryY=0;entryDx=0;entryDy=0;" parent="ORCxQayAOxe9CnL5LS3O-15" source="ORCxQayAOxe9CnL5LS3O-0" target="ORCxQayAOxe9CnL5LS3O-4" edge="1">
          <mxGeometry width="160" relative="1" as="geometry">
            <mxPoint x="330" y="104.80600000000004" as="sourcePoint" />
            <mxPoint x="330" y="110" as="targetPoint" />
          </mxGeometry>
        </mxCell>
        <mxCell id="ORCxQayAOxe9CnL5LS3O-9" value="&lt;div style=&quot;text-align: left&quot;&gt;&lt;/div&gt;" style="edgeLabel;html=1;align=center;verticalAlign=middle;resizable=0;points=[];" parent="ORCxQayAOxe9CnL5LS3O-8" vertex="1" connectable="0">
          <mxGeometry x="0.2289" y="1" relative="1" as="geometry">
            <mxPoint x="4" y="-13" as="offset" />
          </mxGeometry>
        </mxCell>
        <mxCell id="ORCxQayAOxe9CnL5LS3O-12" value="V2TXLivePlayerJni" style="swimlane;fontStyle=1;align=center;verticalAlign=top;childLayout=stackLayout;horizontal=1;startSize=26;horizontalStack=0;resizeParent=1;resizeParentMax=0;resizeLast=0;collapsible=1;marginBottom=0;" parent="ORCxQayAOxe9CnL5LS3O-15" vertex="1">
          <mxGeometry x="90" y="210" width="480" height="56" as="geometry" />
        </mxCell>
        <mxCell id="ORCxQayAOxe9CnL5LS3O-13" value="" style="line;strokeWidth=1;fillColor=none;align=left;verticalAlign=middle;spacingTop=-1;spacingLeft=3;spacingRight=3;rotatable=0;labelPosition=right;points=[];portConstraint=eastwest;" parent="ORCxQayAOxe9CnL5LS3O-12" vertex="1">
          <mxGeometry y="26" width="480" height="8" as="geometry" />
        </mxCell>
        <mxCell id="ORCxQayAOxe9CnL5LS3O-14" value="nativeCreate()" style="text;strokeColor=none;fillColor=none;align=left;verticalAlign=top;spacingLeft=4;spacingRight=4;overflow=hidden;rotatable=0;points=[[0,0.5],[1,0.5]];portConstraint=eastwest;" parent="ORCxQayAOxe9CnL5LS3O-12" vertex="1">
          <mxGeometry y="34" width="480" height="22" as="geometry" />
        </mxCell>
        <mxCell id="ORCxQayAOxe9CnL5LS3O-10" value="" style="endArrow=open;endFill=1;endSize=12;html=1;rounded=0;exitX=0.5;exitY=1;exitDx=0;exitDy=0;entryX=0.5;entryY=0;entryDx=0;entryDy=0;" parent="ORCxQayAOxe9CnL5LS3O-15" source="ORCxQayAOxe9CnL5LS3O-4" target="ORCxQayAOxe9CnL5LS3O-12" edge="1">
          <mxGeometry width="160" relative="1" as="geometry">
            <mxPoint x="330" y="280" as="sourcePoint" />
            <mxPoint x="330" y="240" as="targetPoint" />
          </mxGeometry>
        </mxCell>
        <mxCell id="ORCxQayAOxe9CnL5LS3O-11" value="&lt;div style=&quot;text-align: left&quot;&gt;&lt;/div&gt;" style="edgeLabel;html=1;align=center;verticalAlign=middle;resizable=0;points=[];" parent="ORCxQayAOxe9CnL5LS3O-10" vertex="1" connectable="0">
          <mxGeometry x="0.2289" y="1" relative="1" as="geometry">
            <mxPoint x="4" y="-19" as="offset" />
          </mxGeometry>
        </mxCell>
        <mxCell id="ORCxQayAOxe9CnL5LS3O-19" value="" style="endArrow=block;startArrow=block;endFill=1;startFill=1;html=1;rounded=0;exitX=0.5;exitY=0;exitDx=0;exitDy=0;entryX=0.501;entryY=0.982;entryDx=0;entryDy=0;entryPerimeter=0;" parent="WIyWlLk6GJQsqaUBKTNV-1" source="ORCxQayAOxe9CnL5LS3O-53" target="ORCxQayAOxe9CnL5LS3O-14" edge="1">
          <mxGeometry width="160" relative="1" as="geometry">
            <mxPoint x="370" y="640" as="sourcePoint" />
            <mxPoint x="400" y="580" as="targetPoint" />
          </mxGeometry>
        </mxCell>
        <mxCell id="ORCxQayAOxe9CnL5LS3O-20" value="JNI&lt;br&gt;&lt;span style=&quot;font-size: 12px ; text-align: left ; background-color: rgb(248 , 249 , 250)&quot;&gt;文件live_player2_jni.cc&lt;br&gt;&lt;/span&gt;&lt;span style=&quot;font-family: &amp;#34;menlo&amp;#34; , &amp;#34;monaco&amp;#34; , &amp;#34;courier new&amp;#34; , monospace ; font-size: 8px ; background-color: rgb(255 , 255 , 255)&quot;&gt;JNI_V2TXLivePlayerJni_Create&lt;/span&gt;&lt;span style=&quot;font-size: 12px ; text-align: left ; background-color: rgb(248 , 249 , 250)&quot;&gt;（）&lt;/span&gt;" style="edgeLabel;html=1;align=center;verticalAlign=middle;resizable=0;points=[];" parent="ORCxQayAOxe9CnL5LS3O-19" vertex="1" connectable="0">
          <mxGeometry x="0.0572" y="2" relative="1" as="geometry">
            <mxPoint x="2" y="8" as="offset" />
          </mxGeometry>
        </mxCell>
        <mxCell id="ORCxQayAOxe9CnL5LS3O-21" value="Player" style="swimlane;fontStyle=1;align=center;verticalAlign=top;childLayout=stackLayout;horizontal=1;startSize=26;horizontalStack=0;resizeParent=1;resizeParentMax=0;resizeLast=0;collapsible=1;marginBottom=0;" parent="WIyWlLk6GJQsqaUBKTNV-1" vertex="1">
          <mxGeometry x="315" y="830" width="170" height="34" as="geometry" />
        </mxCell>
        <mxCell id="ORCxQayAOxe9CnL5LS3O-22" value="" style="line;strokeWidth=1;fillColor=none;align=left;verticalAlign=middle;spacingTop=-1;spacingLeft=3;spacingRight=3;rotatable=0;labelPosition=right;points=[];portConstraint=eastwest;" parent="ORCxQayAOxe9CnL5LS3O-21" vertex="1">
          <mxGeometry y="26" width="170" height="8" as="geometry" />
        </mxCell>
        <mxCell id="ORCxQayAOxe9CnL5LS3O-24" value="" style="endArrow=open;endFill=1;endSize=12;html=1;rounded=0;" parent="WIyWlLk6GJQsqaUBKTNV-1" source="ORCxQayAOxe9CnL5LS3O-56" edge="1">
          <mxGeometry width="160" relative="1" as="geometry">
            <mxPoint x="400" y="810.806" as="sourcePoint" />
            <mxPoint x="400" y="820" as="targetPoint" />
          </mxGeometry>
        </mxCell>
        <mxCell id="ORCxQayAOxe9CnL5LS3O-26" value="" style="endArrow=open;endFill=1;endSize=12;html=1;rounded=0;exitX=0.5;exitY=1;exitDx=0;exitDy=0;entryX=0.5;entryY=0;entryDx=0;entryDy=0;" parent="WIyWlLk6GJQsqaUBKTNV-1" source="ORCxQayAOxe9CnL5LS3O-21" target="ORCxQayAOxe9CnL5LS3O-45" edge="1">
          <mxGeometry width="160" relative="1" as="geometry">
            <mxPoint x="396.94000000000005" y="943.2" as="sourcePoint" />
            <mxPoint x="470" y="1080" as="targetPoint" />
          </mxGeometry>
        </mxCell>
        <mxCell id="ORCxQayAOxe9CnL5LS3O-28" value="" style="edgeStyle=orthogonalEdgeStyle;html=1;align=left;verticalAlign=bottom;endArrow=open;endSize=8;strokeColor=#ff0000;rounded=0;" parent="WIyWlLk6GJQsqaUBKTNV-1" source="ORCxQayAOxe9CnL5LS3O-27" edge="1">
          <mxGeometry x="-1" relative="1" as="geometry">
            <mxPoint x="585" y="1160" as="targetPoint" />
            <Array as="points">
              <mxPoint x="585" y="1090" />
            </Array>
          </mxGeometry>
        </mxCell>
        <mxCell id="ORCxQayAOxe9CnL5LS3O-65" value="kROOM" style="edgeLabel;html=1;align=center;verticalAlign=middle;resizable=0;points=[];fontColor=#000000;" parent="ORCxQayAOxe9CnL5LS3O-28" vertex="1" connectable="0">
          <mxGeometry x="0.6251" y="-2" relative="1" as="geometry">
            <mxPoint as="offset" />
          </mxGeometry>
        </mxCell>
        <mxCell id="ORCxQayAOxe9CnL5LS3O-30" value="" style="edgeStyle=orthogonalEdgeStyle;html=1;align=left;verticalAlign=top;endArrow=open;endSize=8;strokeColor=#ff0000;rounded=0;" parent="WIyWlLk6GJQsqaUBKTNV-1" source="ORCxQayAOxe9CnL5LS3O-27" edge="1">
          <mxGeometry x="-1" y="-22" relative="1" as="geometry">
            <mxPoint x="230" y="1160" as="targetPoint" />
            <Array as="points">
              <mxPoint x="230" y="1090" />
            </Array>
            <mxPoint x="12" y="-20" as="offset" />
          </mxGeometry>
        </mxCell>
        <mxCell id="ORCxQayAOxe9CnL5LS3O-59" value="&lt;div style=&quot;color: rgb(212 , 212 , 212) ; background-color: rgb(30 , 30 , 30) ; font-family: &amp;#34;menlo&amp;#34; , &amp;#34;monaco&amp;#34; , &amp;#34;courier new&amp;#34; , monospace ; font-size: 8px ; line-height: 12px&quot;&gt;&lt;br&gt;&lt;/div&gt;" style="edgeLabel;html=1;align=center;verticalAlign=middle;resizable=0;points=[];fontColor=#000000;" parent="ORCxQayAOxe9CnL5LS3O-30" vertex="1" connectable="0">
          <mxGeometry x="0.5709" relative="1" as="geometry">
            <mxPoint as="offset" />
          </mxGeometry>
        </mxCell>
        <mxCell id="ORCxQayAOxe9CnL5LS3O-60" value="kTRTC" style="edgeLabel;html=1;align=center;verticalAlign=middle;resizable=0;points=[];fontColor=#000000;" parent="ORCxQayAOxe9CnL5LS3O-30" vertex="1" connectable="0">
          <mxGeometry x="0.593" relative="1" as="geometry">
            <mxPoint as="offset" />
          </mxGeometry>
        </mxCell>
        <mxCell id="ORCxQayAOxe9CnL5LS3O-32" value="" style="edgeStyle=orthogonalEdgeStyle;html=1;align=left;verticalAlign=bottom;endArrow=open;endSize=8;strokeColor=#ff0000;rounded=0;exitX=0.5;exitY=1;exitDx=0;exitDy=0;" parent="WIyWlLk6GJQsqaUBKTNV-1" source="ORCxQayAOxe9CnL5LS3O-27" edge="1">
          <mxGeometry x="-1" relative="1" as="geometry">
            <mxPoint x="400" y="1160" as="targetPoint" />
            <mxPoint x="399.5" y="1093" as="sourcePoint" />
            <Array as="points" />
          </mxGeometry>
        </mxCell>
        <mxCell id="ORCxQayAOxe9CnL5LS3O-63" value="!kTRTC &amp;amp;&amp;amp; !kROOM&amp;nbsp;" style="edgeLabel;html=1;align=center;verticalAlign=middle;resizable=0;points=[];fontColor=#000000;" parent="ORCxQayAOxe9CnL5LS3O-32" vertex="1" connectable="0">
          <mxGeometry x="-0.1525" y="1" relative="1" as="geometry">
            <mxPoint as="offset" />
          </mxGeometry>
        </mxCell>
        <mxCell id="ORCxQayAOxe9CnL5LS3O-44" value="C++" style="swimlane;horizontal=0;fillColor=#ffe6cc;strokeColor=#d79b00;" parent="WIyWlLk6GJQsqaUBKTNV-1" vertex="1">
          <mxGeometry x="70" y="660" width="660" height="630" as="geometry" />
        </mxCell>
        <mxCell id="ORCxQayAOxe9CnL5LS3O-45" value="PlayerProxy" style="swimlane;fontStyle=1;align=center;verticalAlign=top;childLayout=stackLayout;horizontal=1;startSize=26;horizontalStack=0;resizeParent=1;resizeParentMax=0;resizeLast=0;collapsible=1;marginBottom=0;" parent="ORCxQayAOxe9CnL5LS3O-44" vertex="1">
          <mxGeometry x="220" y="250" width="220" height="110" as="geometry" />
        </mxCell>
        <mxCell id="ORCxQayAOxe9CnL5LS3O-46" value="+ std::unique_ptr&lt;Player&gt; player_" style="text;strokeColor=none;fillColor=none;align=left;verticalAlign=top;spacingLeft=4;spacingRight=4;overflow=hidden;rotatable=0;points=[[0,0.5],[1,0.5]];portConstraint=eastwest;" parent="ORCxQayAOxe9CnL5LS3O-45" vertex="1">
          <mxGeometry y="26" width="220" height="26" as="geometry" />
        </mxCell>
        <mxCell id="ORCxQayAOxe9CnL5LS3O-47" value="" style="line;strokeWidth=1;fillColor=none;align=left;verticalAlign=middle;spacingTop=-1;spacingLeft=3;spacingRight=3;rotatable=0;labelPosition=right;points=[];portConstraint=eastwest;" parent="ORCxQayAOxe9CnL5LS3O-45" vertex="1">
          <mxGeometry y="52" width="220" height="8" as="geometry" />
        </mxCell>
        <mxCell id="ORCxQayAOxe9CnL5LS3O-48" value="+ DoStart(live::Config config)&#xa;+ GetType(url)" style="text;strokeColor=none;fillColor=none;align=left;verticalAlign=top;spacingLeft=4;spacingRight=4;overflow=hidden;rotatable=0;points=[[0,0.5],[1,0.5]];portConstraint=eastwest;" parent="ORCxQayAOxe9CnL5LS3O-45" vertex="1">
          <mxGeometry y="60" width="220" height="50" as="geometry" />
        </mxCell>
        <mxCell id="ORCxQayAOxe9CnL5LS3O-27" value="type" style="rhombus;whiteSpace=wrap;html=1;fillColor=#ffffc0;strokeColor=#ff0000;" parent="ORCxQayAOxe9CnL5LS3O-44" vertex="1">
          <mxGeometry x="289.5" y="410" width="80" height="40" as="geometry" />
        </mxCell>
        <mxCell id="ORCxQayAOxe9CnL5LS3O-34" value="" style="endArrow=open;endFill=1;endSize=12;html=1;rounded=0;exitX=0.5;exitY=1;exitDx=0;exitDy=0;exitPerimeter=0;" parent="ORCxQayAOxe9CnL5LS3O-44" source="ORCxQayAOxe9CnL5LS3O-48" target="ORCxQayAOxe9CnL5LS3O-27" edge="1">
          <mxGeometry width="160" relative="1" as="geometry">
            <mxPoint x="240" y="570" as="sourcePoint" />
            <mxPoint x="400" y="570" as="targetPoint" />
          </mxGeometry>
        </mxCell>
        <mxCell id="ORCxQayAOxe9CnL5LS3O-35" value="TRTCPlayerImpl" style="swimlane;fontStyle=1;align=center;verticalAlign=top;childLayout=stackLayout;horizontal=1;startSize=26;horizontalStack=0;resizeParent=1;resizeParentMax=0;resizeLast=0;collapsible=1;marginBottom=0;" parent="ORCxQayAOxe9CnL5LS3O-44" vertex="1">
          <mxGeometry x="70" y="500" width="170" height="114" as="geometry" />
        </mxCell>
        <mxCell id="ORCxQayAOxe9CnL5LS3O-36" value="" style="line;strokeWidth=1;fillColor=none;align=left;verticalAlign=middle;spacingTop=-1;spacingLeft=3;spacingRight=3;rotatable=0;labelPosition=right;points=[];portConstraint=eastwest;" parent="ORCxQayAOxe9CnL5LS3O-35" vertex="1">
          <mxGeometry y="26" width="170" height="8" as="geometry" />
        </mxCell>
        <mxCell id="ORCxQayAOxe9CnL5LS3O-37" value="+ TRTCPlayerImpl(client,&#xa;task_runner)" style="text;strokeColor=none;fillColor=none;align=left;verticalAlign=top;spacingLeft=4;spacingRight=4;overflow=hidden;rotatable=0;points=[[0,0.5],[1,0.5]];portConstraint=eastwest;" parent="ORCxQayAOxe9CnL5LS3O-35" vertex="1">
          <mxGeometry y="34" width="170" height="80" as="geometry" />
        </mxCell>
        <mxCell id="ORCxQayAOxe9CnL5LS3O-38" value="LivePlayer" style="swimlane;fontStyle=1;align=center;verticalAlign=top;childLayout=stackLayout;horizontal=1;startSize=26;horizontalStack=0;resizeParent=1;resizeParentMax=0;resizeLast=0;collapsible=1;marginBottom=0;" parent="ORCxQayAOxe9CnL5LS3O-44" vertex="1">
          <mxGeometry x="245" y="500" width="170" height="114" as="geometry" />
        </mxCell>
        <mxCell id="ORCxQayAOxe9CnL5LS3O-39" value="" style="line;strokeWidth=1;fillColor=none;align=left;verticalAlign=middle;spacingTop=-1;spacingLeft=3;spacingRight=3;rotatable=0;labelPosition=right;points=[];portConstraint=eastwest;" parent="ORCxQayAOxe9CnL5LS3O-38" vertex="1">
          <mxGeometry y="26" width="170" height="8" as="geometry" />
        </mxCell>
        <mxCell id="ORCxQayAOxe9CnL5LS3O-40" value="+ LivePlayer(Type type,&#xa;client,&#xa;task_runner)" style="text;strokeColor=none;fillColor=none;align=left;verticalAlign=top;spacingLeft=4;spacingRight=4;overflow=hidden;rotatable=0;points=[[0,0.5],[1,0.5]];portConstraint=eastwest;" parent="ORCxQayAOxe9CnL5LS3O-38" vertex="1">
          <mxGeometry y="34" width="170" height="80" as="geometry" />
        </mxCell>
        <mxCell id="ORCxQayAOxe9CnL5LS3O-41" value="RoomPlayerImpl" style="swimlane;fontStyle=1;align=center;verticalAlign=top;childLayout=stackLayout;horizontal=1;startSize=26;horizontalStack=0;resizeParent=1;resizeParentMax=0;resizeLast=0;collapsible=1;marginBottom=0;" parent="ORCxQayAOxe9CnL5LS3O-44" vertex="1">
          <mxGeometry x="440" y="500" width="170" height="114" as="geometry" />
        </mxCell>
        <mxCell id="ORCxQayAOxe9CnL5LS3O-42" value="" style="line;strokeWidth=1;fillColor=none;align=left;verticalAlign=middle;spacingTop=-1;spacingLeft=3;spacingRight=3;rotatable=0;labelPosition=right;points=[];portConstraint=eastwest;" parent="ORCxQayAOxe9CnL5LS3O-41" vertex="1">
          <mxGeometry y="26" width="170" height="8" as="geometry" />
        </mxCell>
        <mxCell id="ORCxQayAOxe9CnL5LS3O-43" value="+ :RoomPlayerImpl(client,&#xa;task_runner)" style="text;strokeColor=none;fillColor=none;align=left;verticalAlign=top;spacingLeft=4;spacingRight=4;overflow=hidden;rotatable=0;points=[[0,0.5],[1,0.5]];portConstraint=eastwest;" parent="ORCxQayAOxe9CnL5LS3O-41" vertex="1">
          <mxGeometry y="34" width="170" height="80" as="geometry" />
        </mxCell>
        <mxCell id="ORCxQayAOxe9CnL5LS3O-53" value="V2TXLivePlayerJni" style="swimlane;fontStyle=1;align=center;verticalAlign=top;childLayout=stackLayout;horizontal=1;startSize=26;horizontalStack=0;resizeParent=1;resizeParentMax=0;resizeLast=0;collapsible=1;marginBottom=0;labelBackgroundColor=#FFFFFF;fontColor=#000000;" parent="WIyWlLk6GJQsqaUBKTNV-1" vertex="1">
          <mxGeometry x="260" y="680" width="280" height="100" as="geometry" />
        </mxCell>
        <mxCell id="ORCxQayAOxe9CnL5LS3O-54" value="+ live::Player* player_" style="text;strokeColor=none;fillColor=none;align=left;verticalAlign=top;spacingLeft=4;spacingRight=4;overflow=hidden;rotatable=0;points=[[0,0.5],[1,0.5]];portConstraint=eastwest;labelBackgroundColor=#FFFFFF;fontColor=#000000;" parent="ORCxQayAOxe9CnL5LS3O-53" vertex="1">
          <mxGeometry y="26" width="280" height="26" as="geometry" />
        </mxCell>
        <mxCell id="ORCxQayAOxe9CnL5LS3O-55" value="" style="line;strokeWidth=1;fillColor=none;align=left;verticalAlign=middle;spacingTop=-1;spacingLeft=3;spacingRight=3;rotatable=0;labelPosition=right;points=[];portConstraint=eastwest;labelBackgroundColor=#FFFFFF;fontColor=#000000;" parent="ORCxQayAOxe9CnL5LS3O-53" vertex="1">
          <mxGeometry y="52" width="280" height="8" as="geometry" />
        </mxCell>
        <mxCell id="ORCxQayAOxe9CnL5LS3O-56" value="+ V2TXLivePlayerJni(env, j_player)" style="text;strokeColor=none;fillColor=none;align=left;verticalAlign=top;spacingLeft=4;spacingRight=4;overflow=hidden;rotatable=0;points=[[0,0.5],[1,0.5]];portConstraint=eastwest;labelBackgroundColor=#FFFFFF;fontColor=#000000;" parent="ORCxQayAOxe9CnL5LS3O-53" vertex="1">
          <mxGeometry y="60" width="280" height="40" as="geometry" />
        </mxCell>
        <mxCell id="ORCxQayAOxe9CnL5LS3O-66" value="" style="edgeStyle=orthogonalEdgeStyle;html=1;align=left;verticalAlign=bottom;endArrow=open;endSize=8;strokeColor=#ff0000;rounded=0;" parent="WIyWlLk6GJQsqaUBKTNV-1" source="ORCxQayAOxe9CnL5LS3O-73" target="ORCxQayAOxe9CnL5LS3O-85" edge="1">
          <mxGeometry x="-1" relative="1" as="geometry">
            <mxPoint x="740" y="1410" as="targetPoint" />
            <Array as="points">
              <mxPoint x="740" y="1340" />
              <mxPoint x="740" y="1410" />
            </Array>
          </mxGeometry>
        </mxCell>
        <mxCell id="ORCxQayAOxe9CnL5LS3O-67" value="kRTMP" style="edgeLabel;html=1;align=center;verticalAlign=middle;resizable=0;points=[];fontColor=#000000;" parent="ORCxQayAOxe9CnL5LS3O-66" vertex="1" connectable="0">
          <mxGeometry x="0.6251" y="-2" relative="1" as="geometry">
            <mxPoint as="offset" />
          </mxGeometry>
        </mxCell>
        <mxCell id="ORCxQayAOxe9CnL5LS3O-68" value="" style="edgeStyle=orthogonalEdgeStyle;html=1;align=left;verticalAlign=top;endArrow=open;endSize=8;strokeColor=#ff0000;rounded=0;entryX=0.5;entryY=0;entryDx=0;entryDy=0;" parent="WIyWlLk6GJQsqaUBKTNV-1" target="ORCxQayAOxe9CnL5LS3O-81" edge="1">
          <mxGeometry x="-1" y="-22" relative="1" as="geometry">
            <mxPoint x="125" y="1422" as="targetPoint" />
            <Array as="points">
              <mxPoint x="125" y="1340" />
            </Array>
            <mxPoint x="12" y="-20" as="offset" />
            <mxPoint x="359.5" y="1340" as="sourcePoint" />
          </mxGeometry>
        </mxCell>
        <mxCell id="ORCxQayAOxe9CnL5LS3O-69" value="&lt;div style=&quot;color: rgb(212 , 212 , 212) ; background-color: rgb(30 , 30 , 30) ; font-family: &amp;#34;menlo&amp;#34; , &amp;#34;monaco&amp;#34; , &amp;#34;courier new&amp;#34; , monospace ; font-size: 8px ; line-height: 12px&quot;&gt;&lt;br&gt;&lt;/div&gt;" style="edgeLabel;html=1;align=center;verticalAlign=middle;resizable=0;points=[];fontColor=#000000;" parent="ORCxQayAOxe9CnL5LS3O-68" vertex="1" connectable="0">
          <mxGeometry x="0.5709" relative="1" as="geometry">
            <mxPoint as="offset" />
          </mxGeometry>
        </mxCell>
        <mxCell id="ORCxQayAOxe9CnL5LS3O-70" value="kFLV" style="edgeLabel;html=1;align=center;verticalAlign=middle;resizable=0;points=[];fontColor=#000000;" parent="ORCxQayAOxe9CnL5LS3O-68" vertex="1" connectable="0">
          <mxGeometry x="0.593" relative="1" as="geometry">
            <mxPoint as="offset" />
          </mxGeometry>
        </mxCell>
        <mxCell id="ORCxQayAOxe9CnL5LS3O-71" value="" style="edgeStyle=orthogonalEdgeStyle;html=1;align=left;verticalAlign=bottom;endArrow=open;endSize=8;strokeColor=#ff0000;rounded=0;exitX=0.5;exitY=1;exitDx=0;exitDy=0;" parent="WIyWlLk6GJQsqaUBKTNV-1" source="ORCxQayAOxe9CnL5LS3O-73" edge="1">
          <mxGeometry x="-1" relative="1" as="geometry">
            <mxPoint x="400" y="1410" as="targetPoint" />
            <mxPoint x="399.5" y="1343" as="sourcePoint" />
            <Array as="points" />
          </mxGeometry>
        </mxCell>
        <mxCell id="ORCxQayAOxe9CnL5LS3O-72" value="kLEB" style="edgeLabel;html=1;align=center;verticalAlign=middle;resizable=0;points=[];fontColor=#000000;" parent="ORCxQayAOxe9CnL5LS3O-71" vertex="1" connectable="0">
          <mxGeometry x="-0.1525" y="1" relative="1" as="geometry">
            <mxPoint as="offset" />
          </mxGeometry>
        </mxCell>
        <mxCell id="ORCxQayAOxe9CnL5LS3O-73" value="type" style="rhombus;whiteSpace=wrap;html=1;fillColor=#ffffc0;strokeColor=#ff0000;" parent="WIyWlLk6GJQsqaUBKTNV-1" vertex="1">
          <mxGeometry x="359.5" y="1320" width="80" height="40" as="geometry" />
        </mxCell>
        <mxCell id="ORCxQayAOxe9CnL5LS3O-74" value="" style="endArrow=open;endFill=1;endSize=12;html=1;rounded=0;" parent="WIyWlLk6GJQsqaUBKTNV-1" target="ORCxQayAOxe9CnL5LS3O-73" edge="1">
          <mxGeometry width="160" relative="1" as="geometry">
            <mxPoint x="400" y="1280" as="sourcePoint" />
            <mxPoint x="400" y="820" as="targetPoint" />
          </mxGeometry>
        </mxCell>
        <mxCell id="ORCxQayAOxe9CnL5LS3O-81" value="report_stats_.network_stats.is_real_time = false;&lt;br style=&quot;padding: 0px ; margin: 0px&quot;&gt;report_stats_.network_stats.server_type =&lt;br style=&quot;padding: 0px ; margin: 0px&quot;&gt;PlayerReporter::ServerType::kCDN;&lt;br style=&quot;padding: 0px ; margin: 0px&quot;&gt;report_stats_.network_stats.channel_type =&lt;br style=&quot;padding: 0px ; margin: 0px&quot;&gt;PlayerReporter::ChannelType::kTCP;&lt;div style=&quot;padding: 0px ; margin: 0px&quot;&gt;&lt;br style=&quot;padding: 0px; margin: 0px;&quot;&gt;&lt;/div&gt;" style="html=1;labelBackgroundColor=#FFFFFF;fontColor=#000000;align=left;" parent="WIyWlLk6GJQsqaUBKTNV-1" vertex="1">
          <mxGeometry x="-20" y="1410" width="290" height="100" as="geometry" />
        </mxCell>
        <mxCell id="ORCxQayAOxe9CnL5LS3O-82" value="report_stats_.network_stats.is_real_time = true;&lt;br style=&quot;padding: 0px ; margin: 0px&quot;&gt;report_stats_.network_stats.server_type =&lt;br style=&quot;padding: 0px ; margin: 0px&quot;&gt;PlayerReporter::ServerType::kWebRTC;&lt;br style=&quot;padding: 0px ; margin: 0px&quot;&gt;report_stats_.network_stats.channel_type =&lt;br style=&quot;padding: 0px ; margin: 0px&quot;&gt;PlayerReporter::ChannelType::kRtp;&lt;div style=&quot;padding: 0px ; margin: 0px&quot;&gt;&lt;br style=&quot;padding: 0px; margin: 0px;&quot;&gt;&lt;/div&gt;" style="html=1;labelBackgroundColor=#FFFFFF;fontColor=#000000;align=left;" parent="WIyWlLk6GJQsqaUBKTNV-1" vertex="1">
          <mxGeometry x="274" y="1410" width="290" height="100" as="geometry" />
        </mxCell>
        <mxCell id="ORCxQayAOxe9CnL5LS3O-85" value="isRTMPROOM" style="rhombus;whiteSpace=wrap;html=1;fillColor=#ffffc0;strokeColor=#ff0000;labelBackgroundColor=#FFFFFF;fontColor=#000000;" parent="WIyWlLk6GJQsqaUBKTNV-1" vertex="1">
          <mxGeometry x="660" y="1390" width="160" height="40" as="geometry" />
        </mxCell>
        <mxCell id="ORCxQayAOxe9CnL5LS3O-86" value="" style="edgeStyle=orthogonalEdgeStyle;html=1;align=left;verticalAlign=bottom;endArrow=open;endSize=8;strokeColor=#ff0000;rounded=0;exitX=1;exitY=0.5;exitDx=0;exitDy=0;" parent="WIyWlLk6GJQsqaUBKTNV-1" source="ORCxQayAOxe9CnL5LS3O-85" edge="1">
          <mxGeometry x="-1" relative="1" as="geometry">
            <mxPoint x="1203" y="1520" as="targetPoint" />
            <mxPoint x="1160" y="1400" as="sourcePoint" />
            <Array as="points" />
          </mxGeometry>
        </mxCell>
        <mxCell id="ORCxQayAOxe9CnL5LS3O-87" value="yes" style="edgeLabel;html=1;align=center;verticalAlign=middle;resizable=0;points=[];fontColor=#000000;" parent="ORCxQayAOxe9CnL5LS3O-86" vertex="1" connectable="0">
          <mxGeometry x="-0.1525" y="1" relative="1" as="geometry">
            <mxPoint as="offset" />
          </mxGeometry>
        </mxCell>
        <mxCell id="ORCxQayAOxe9CnL5LS3O-88" value="report_stats_.network_stats.is_real_time = config.enable_realtime;&lt;br style=&quot;padding: 0px ; margin: 0px&quot;&gt;report_stats_.network_stats.server_type =&lt;br style=&quot;padding: 0px ; margin: 0px&quot;&gt;config.enable_realtime ? PlayerReporter::ServerType::kRTMPAcc&lt;br style=&quot;padding: 0px ; margin: 0px&quot;&gt;: PlayerReporter::ServerType::kCDN;&lt;br style=&quot;padding: 0px ; margin: 0px&quot;&gt;reporter_type = config.enable_realtime&lt;br style=&quot;padding: 0px ; margin: 0px&quot;&gt;? PlayerReporter::ReporterType::kRTMPAcc&lt;br style=&quot;padding: 0px ; margin: 0px&quot;&gt;: PlayerReporter::ReporterType::kNormal;&lt;div style=&quot;padding: 0px ; margin: 0px&quot;&gt;&lt;br style=&quot;padding: 0px; margin: 0px;&quot;&gt;&lt;/div&gt;" style="html=1;labelBackgroundColor=#FFFFFF;fontColor=#000000;align=left;" parent="WIyWlLk6GJQsqaUBKTNV-1" vertex="1">
          <mxGeometry x="570" y="1490" width="420" height="130" as="geometry" />
        </mxCell>
        <mxCell id="ORCxQayAOxe9CnL5LS3O-89" value="" style="edgeStyle=orthogonalEdgeStyle;html=1;align=left;verticalAlign=bottom;endArrow=open;endSize=8;strokeColor=#ff0000;rounded=0;exitX=0.5;exitY=1;exitDx=0;exitDy=0;entryX=0.5;entryY=0;entryDx=0;entryDy=0;" parent="WIyWlLk6GJQsqaUBKTNV-1" target="ORCxQayAOxe9CnL5LS3O-88" edge="1">
          <mxGeometry x="-1" relative="1" as="geometry">
            <mxPoint x="740" y="1480" as="targetPoint" />
            <mxPoint x="739.5" y="1430" as="sourcePoint" />
            <Array as="points">
              <mxPoint x="741" y="1430" />
              <mxPoint x="741" y="1455" />
            </Array>
          </mxGeometry>
        </mxCell>
        <mxCell id="ORCxQayAOxe9CnL5LS3O-90" value="no" style="edgeLabel;html=1;align=center;verticalAlign=middle;resizable=0;points=[];fontColor=#000000;" parent="ORCxQayAOxe9CnL5LS3O-89" vertex="1" connectable="0">
          <mxGeometry x="-0.1525" y="1" relative="1" as="geometry">
            <mxPoint as="offset" />
          </mxGeometry>
        </mxCell>
        <mxCell id="ORCxQayAOxe9CnL5LS3O-92" value="report_stats_.network_stats.is_real_time = true;&lt;br style=&quot;padding: 0px ; margin: 0px&quot;&gt;report_stats_.network_stats.server_type =&lt;br style=&quot;padding: 0px ; margin: 0px&quot;&gt;PlayerReporter::ServerType::kRTMPRoom;&lt;br style=&quot;padding: 0px ; margin: 0px&quot;&gt;// 如果是RTMPRoom，认为是RTMPAcc。 复用acc上报通道。&lt;br style=&quot;padding: 0px ; margin: 0px&quot;&gt;reporter_type = PlayerReporter::ReporterType::kRTMPAcc;&lt;div style=&quot;padding: 0px ; margin: 0px&quot;&gt;&lt;br style=&quot;padding: 0px; margin: 0px;&quot;&gt;&lt;/div&gt;" style="html=1;labelBackgroundColor=#FFFFFF;fontColor=#000000;align=left;" parent="WIyWlLk6GJQsqaUBKTNV-1" vertex="1">
          <mxGeometry x="1000" y="1520" width="390" height="110" as="geometry" />
        </mxCell>
      </root>
    </mxGraphModel>
  </diagram>
</mxfile>
